<?xml version="1.0" standalone="no"?>
<!DOCTYPE svg PUBLIC "-//W3C//DTD SVG 20010904//EN"
 "http://www.w3.org/TR/2001/REC-SVG-20010904/DTD/svg10.dtd">
<svg version="1.0" xmlns="http://www.w3.org/2000/svg"
 width="16.000000pt" height="16.000000pt" viewBox="0 0 16.000000 16.000000"
 preserveAspectRatio="xMidYMid meet">
<metadata>
Created by potrace 1.11, written by Peter Selinger 2001-2013
</metadata>
<g transform="translate(0.000000,16.000000) scale(0.002857,-0.002857)"
fill="#000000" stroke="none">
<path d="M4568 4035 c-2 -1 -32 -5 -68 -8 -231 -21 -463 -102 -682 -238 -256
-159 -515 -421 -688 -697 -25 -39 -48 -72 -52 -72 -4 0 -5 20 -2 44 9 65 10
242 1 310 -21 168 -76 278 -201 401 -90 89 -170 135 -310 179 -218 70 -233 71
-806 71 -455 0 -775 -7 -850 -20 -14 -2 -51 -6 -82 -10 -160 -17 -301 -77
-374 -158 -88 -98 -93 -211 -15 -373 44 -93 128 -188 175 -200 58 -14 127 45
109 93 -3 10 -19 36 -35 59 -51 72 -33 181 40 245 69 61 231 112 442 139 47 6
99 12 115 15 17 2 61 7 98 10 l69 7 -26 -40 c-14 -22 -91 -168 -172 -324 -136
-263 -430 -813 -515 -965 -10 -18 -35 -63 -55 -100 -231 -424 -315 -563 -371
-614 -32 -31 -101 -69 -123 -69 -24 0 -70 -43 -75 -70 -13 -66 45 -108 132
-96 43 6 141 50 219 98 57 36 131 68 154 68 11 0 78 -22 148 -49 232 -89 314
-104 572 -103 647 1 1117 264 1485 830 36 57 68 102 70 100 2 -2 0 -32 -4 -68
-4 -36 -7 -126 -5 -201 3 -117 7 -149 31 -220 87 -265 307 -424 667 -485 124
-20 450 -13 593 15 396 75 801 311 1036 604 57 71 75 104 81 152 9 68 -28 106
-87 91 -13 -3 -65 -48 -117 -99 -135 -134 -202 -191 -305 -260 -272 -180 -595
-280 -910 -279 -141 0 -168 3 -260 24 -140 32 -244 111 -305 233 -38 77 -51
145 -51 275 0 375 209 799 571 1160 176 175 348 287 542 354 99 34 169 43 320
41 143 -1 196 -19 237 -80 56 -83 61 -234 12 -383 -36 -108 -32 -133 23 -152
28 -9 44 -9 72 0 43 15 89 82 184 272 58 115 64 132 64 190 0 76 -19 121 -79
181 -76 78 -236 145 -389 162 -55 7 -243 14 -248 10z m-2313 -235 c198 -49
371 -203 426 -379 33 -108 26 -320 -17 -501 -132 -559 -542 -999 -1054 -1130
-115 -29 -125 -31 -285 -34 -227 -6 -318 14 -410 89 -63 52 -71 82 -39 158 31
73 565 1132 669 1327 251 468 276 491 530 485 71 -1 153 -8 180 -15z"/>
</g>
</svg>
